<?xml version="1.0" encoding="UTF-8"?>
<svg id="Layer_2" data-name="Layer 2" xmlns="http://www.w3.org/2000/svg" viewBox="0 0 394 238">
  <defs>
    <style>
      .cls-1 {
        fill: #262626;
      }

      .cls-2 {
        fill: #ff7200;
      }
    </style>
  </defs>
  <g id="Logo">
    <g>
      <g>
        <path class="cls-1" d="M164,186v35.31c0,1.49,1.19,2.69,2.64,2.69h17.36v14h-15.52c-10.21,0-18.48-8.42-18.48-18.81v-33.19h-12v-14h12v-19.97h14v19.97h20v14h-20Z"/>
        <rect class="cls-1" x="360" y="172" width="14" height="66"/>
        <rect class="cls-1" x="380" y="152" width="14" height="86"/>
        <rect class="cls-1" x="360" y="152" width="14" height="14"/>
        <path class="cls-1" d="M52,172v6.03c-5.37-3.79-11.92-6.03-19-6.03-18.23,0-33,14.77-33,33s14.77,33,33,33c7.08,0,13.63-2.23,19-6.03v6.03h14v-66h-14ZM33,224c-10.49,0-19-8.51-19-19s8.51-19,19-19,19,8.51,19,19-8.51,19-19,19Z"/>
        <path class="cls-1" d="M288,172v6.03c-5.37-3.79-11.92-6.03-19-6.03-18.23,0-33,14.77-33,33s14.77,33,33,33c7.08,0,13.63-2.23,19-6.03v6.03h14v-66h-14ZM269,224c-10.49,0-19-8.51-19-19s8.51-19,19-19,19,8.51,19,19-8.51,19-19,19Z"/>
        <path class="cls-1" d="M92,186h40v-14h-40c-11.05,0-20,8.95-20,20s8.95,20,20,20h20c3.31,0,6,2.69,6,6s-2.69,6-6,6h-40v14h40c11.05,0,20-8.95,20-20s-8.95-20-20-20h-20c-3.31,0-6-2.69-6-6s2.69-6,6-6Z"/>
        <path class="cls-1" d="M236,172v14h-16c-8.84,0-16,7.16-16,16v36h-14v-66h14v5.51c4.78-3.46,10.65-5.51,17-5.51h15Z"/>
        <path class="cls-1" d="M338,152c-1.38,0-2.71.17-4,.46-6.73,1.53-12.01,6.81-13.54,13.54-.29,1.29-.46,2.62-.46,4v2h-12v14h12v52h14v-52h20v-14h-20v-2c0-2.21,1.79-4,4-4h16v-14h-16Z"/>
      </g>
      <g>
        <path class="cls-2" d="M266,69c0,38.11-30.89,69-69,69h-69v-10h69c32.53,0,59-26.47,59-59s-26.47-59-59-59-59,26.47-59,59v11h-10v-11C128,30.89,158.89,0,197,0s69,30.89,69,69Z"/>
        <g>
          <path class="cls-2" d="M226,69c0-16.02-12.98-29-29-29s-29,12.98-29,29v11h10v-11c0-10.48,8.52-19,19-19s19,8.52,19,19-8.52,19-19,19h-69v10h69c16.02,0,29-12.98,29-29Z"/>
          <path class="cls-2" d="M246,69c0-27.06-21.94-49-49-49s-49,21.94-49,49v11h10v-11c0-21.5,17.5-39,39-39s39,17.5,39,39-17.5,39-39,39h-69v10h69c27.06,0,49-21.94,49-49Z"/>
        </g>
      </g>
    </g>
  </g>
</svg>